<svg width="160" height="42" viewBox="0 0 160 42" fill="none" xmlns="http://www.w3.org/2000/svg">
<path d="M24.4292 22.5685L24.4298 22.5655C24.5469 22.0516 24.6084 21.5442 24.6084 20.9666C24.6084 20.3905 24.5409 19.8327 24.4143 19.3007L24.4131 19.2959C24.3013 18.8146 24.1381 18.3534 23.9311 17.9203L23.9299 17.9176C22.9386 15.8255 20.9902 14.4559 18.807 14.4559C15.6856 14.4559 13.0065 17.2977 13.0065 20.9666C13.0065 24.6352 15.6855 27.4764 18.807 27.4764C21.0042 27.4764 22.9657 26.0853 23.9521 23.9675L23.9534 23.9648C24.1587 23.5278 24.3188 23.0606 24.4292 22.5685Z" fill="#1A2C6F"/>
<path d="M25.5101 21.0107C25.5102 21.0001 25.5102 20.9894 25.5102 20.9787C25.5102 20.9805 25.5102 20.9824 25.5102 20.9842C25.5102 20.993 25.5102 21.0019 25.5101 21.0107Z" fill="#1A2C6F"/>
<path fill-rule="evenodd" clip-rule="evenodd" d="M10.8441 0C4.85508 0 0 4.90348 0 10.9522V30.6663C0 36.715 4.85508 41.6185 10.8441 41.6185H30.3635C36.3526 41.6185 41.2077 36.715 41.2077 30.6663V10.9522C41.2077 4.90348 36.3526 0 30.3635 0H10.8441ZM33.1634 10.0432L26.7337 20.9091L33.1946 31.9466H28.1068L26.7918 29.6919C26.5549 29.2856 26.3082 28.863 26.0869 28.4837C24.2641 30.5451 21.6996 31.8727 18.807 31.8727C13.1593 31.8727 8.6871 26.9282 8.6871 20.9666C8.6871 15.005 13.1592 10.0596 18.807 10.0596C21.6934 10.0596 24.2809 11.3585 26.1146 13.4197L28.1104 10.0432H33.1634Z" fill="#1A2C6F"/>
<path d="M58.1102 30.2502C54.3006 30.2502 50.3053 27.4037 50.3053 21.8045C50.3053 16.2053 54.3006 13.3587 58.1102 13.3587C61.0525 13.3587 63.0966 14.9853 63.6851 16.2678H63.778V13.6715H67.1849V29.9374H63.778V27.3411H63.6851C63.0966 28.6236 61.0525 30.2502 58.1102 30.2502ZM53.6812 21.8045C53.6812 25.3079 56.1899 27.1222 58.7606 27.1222C61.3622 27.1222 63.8709 25.3079 63.8709 21.8045C63.8709 18.3011 61.3622 16.4868 58.7606 16.4868C56.1899 16.4868 53.6812 18.3011 53.6812 21.8045Z" fill="#1A2C6F"/>
<path d="M86.3838 29.9374H82.9769V27.3411H82.8839C82.2955 28.6236 80.2513 30.2502 77.309 30.2502C73.4995 30.2502 69.5041 27.4037 69.5041 21.8045C69.5041 16.2053 73.4995 13.3587 77.309 13.3587C80.2513 13.3587 82.2955 14.9853 82.8839 16.2678H82.9769V7.72824H86.3838V29.9374ZM72.8801 21.8045C72.8801 25.3079 75.3888 27.1222 77.9594 27.1222C80.5611 27.1222 83.0698 25.3079 83.0698 21.8045C83.0698 18.3011 80.5611 16.4868 77.9594 16.4868C75.3888 16.4868 72.8801 18.3011 72.8801 21.8045Z" fill="#1A2C6F"/>
<path d="M94.4018 30.2502C91.3046 30.2502 89.0437 28.6549 88.5481 25.7771L91.3356 24.9951C91.6763 26.3714 92.6983 27.4663 94.3708 27.4663C95.6407 27.4663 96.8795 26.8094 96.8795 25.3705C96.8795 24.3382 96.1982 23.7126 94.6496 23.087L92.9152 22.4301C90.2516 21.3978 89.1366 19.74 89.1366 17.8319C89.1366 15.0792 91.5214 13.3587 94.4328 13.3587C97.1893 13.3587 99.2024 14.8915 99.7599 17.2688L97.0654 17.9883C96.6008 16.6745 95.7026 16.1114 94.5876 16.1114C93.3488 16.1114 92.4816 16.7996 92.4816 17.8631C92.4816 18.7077 93.0081 19.4272 94.4637 19.9589L96.0433 20.5845C98.2733 21.4291 100.286 22.5865 100.286 25.3705C100.286 28.6236 97.5609 30.2502 94.4018 30.2502Z" fill="#1A2C6F"/>
<path d="M110.247 30.2502C106.035 30.2502 101.822 27.2786 101.822 21.8045C101.822 16.3304 106.035 13.3587 110.247 13.3587C113.065 13.3587 115.667 14.7038 117.153 17.3626L114.614 18.958C113.685 17.4565 112.105 16.5181 110.278 16.5181C107.676 16.5181 105.198 18.4575 105.198 21.8045C105.198 25.1515 107.676 27.0909 110.278 27.0909C112.105 27.0909 113.685 26.1525 114.614 24.651L117.153 26.2463C115.667 28.8739 113.065 30.2502 110.247 30.2502Z" fill="#1A2C6F"/>
<path d="M126.165 30.2502C122.355 30.2502 118.36 27.4037 118.36 21.8045C118.36 16.2053 122.355 13.3587 126.165 13.3587C129.107 13.3587 131.151 14.9853 131.739 16.2678H131.832V13.6715H135.239V29.9374H131.832V27.3411H131.739C131.151 28.6236 129.107 30.2502 126.165 30.2502ZM121.736 21.8045C121.736 25.3079 124.244 27.1222 126.815 27.1222C129.417 27.1222 131.925 25.3079 131.925 21.8045C131.925 18.3011 129.417 16.4868 126.815 16.4868C124.244 16.4868 121.736 18.3011 121.736 21.8045Z" fill="#1A2C6F"/>
<path d="M138.333 29.9374V7.72824H141.74V29.9374H138.333Z" fill="#1A2C6F"/>
<path d="M152.386 30.2502C148.019 30.2502 144.054 27.216 144.054 21.8045C144.054 16.3304 148.049 13.3587 152.138 13.3587C156.226 13.3587 160.686 16.2991 159.912 23.1183H147.275C147.802 25.9335 150.001 27.3724 152.757 27.3724C154.492 27.3724 156.04 26.8094 157.217 25.6833L158.828 27.3724C157.434 29.1241 155.111 30.2502 152.386 30.2502ZM147.244 20.5533H156.876C156.691 17.738 154.461 16.2991 152.169 16.2991C149.908 16.2991 147.74 17.6755 147.244 20.5533Z" fill="#1A2C6F"/>
<path d="M24.4292 22.5685L24.4298 22.5655C24.5469 22.0516 24.6084 21.5442 24.6084 20.9666C24.6084 20.3905 24.5409 19.8327 24.4143 19.3007L24.4131 19.2959C24.3013 18.8146 24.1381 18.3534 23.9311 17.9203L23.9299 17.9176C22.9386 15.8255 20.9902 14.4559 18.807 14.4559C15.6856 14.4559 13.0065 17.2977 13.0065 20.9666C13.0065 24.6352 15.6855 27.4764 18.807 27.4764C21.0042 27.4764 22.9657 26.0853 23.9521 23.9675L23.9534 23.9648C24.1587 23.5278 24.3188 23.0606 24.4292 22.5685Z" fill="#1A2C6F"/>
<path d="M25.5101 21.0107C25.5102 21.0001 25.5102 20.9894 25.5102 20.9787L25.5102 20.9842C25.5102 20.993 25.5102 21.0019 25.5101 21.0107Z" fill="#1A2C6F"/>
<path fill-rule="evenodd" clip-rule="evenodd" d="M10.8441 0C4.85508 0 0 4.90348 0 10.9522V30.6663C0 36.715 4.85508 41.6185 10.8441 41.6185H30.3635C36.3526 41.6185 41.2077 36.715 41.2077 30.6663V10.9522C41.2077 4.90348 36.3526 0 30.3635 0H10.8441ZM33.1634 10.0432L26.7337 20.9091L33.1946 31.9466H28.1068L26.7918 29.6919C26.5549 29.2856 26.3082 28.863 26.0869 28.4837C24.2641 30.5451 21.6996 31.8727 18.807 31.8727C13.1593 31.8727 8.6871 26.9282 8.6871 20.9666C8.6871 15.005 13.1592 10.0596 18.807 10.0596C21.6934 10.0596 24.2809 11.3585 26.1146 13.4197L28.1104 10.0432H33.1634Z" fill="#1A2C6F"/>
</svg>
